<svg xmlns="http://www.w3.org/2000/svg" xmlns:xlink="http://www.w3.org/1999/xlink" version="1.1" x="0px" y="0px" viewBox="0 0 91 113.75" style="enable-background:new 0 0 91 91;" xml:space="preserve"><g><path d="M41.8,61.4H47c1.8,0,3.3-1.5,3.3-3.3v-6.8c0-1.8-1.5-3.3-3.3-3.3h-5.2c-1.8,0-3.3,1.5-3.3,3.3v6.8   C38.5,59.9,40,61.4,41.8,61.4z M42.2,51.7h4.3v6h-4.3V51.7z"/><path d="M57,61.4h5.2c1.8,0,3.3-1.5,3.3-3.3v-6.8c0-1.8-1.5-3.3-3.3-3.3H57c-1.8,0-3.3,1.5-3.3,3.3v6.8   C53.7,59.9,55.2,61.4,57,61.4z M57.4,51.7h4.3v6h-4.3V51.7z"/><path d="M33.1,61.4c1,0,1.8-0.8,1.8-1.8V50c0-1-0.8-1.8-1.8-1.8S31.3,49,31.3,50v9.6C31.2,60.5,32,61.4,33.1,61.4z"/><path d="M55,64.3h-5.2c-1.8,0-3.3,1.5-3.3,3.3v6.8c0,1.8,1.5,3.3,3.3,3.3H55c1.8,0,3.3-1.5,3.3-3.3v-6.8   C58.2,65.7,56.8,64.3,55,64.3z M54.5,73.9h-4.3v-6h4.3V73.9z"/><path d="M39.7,64.3h-5.2c-1.8,0-3.3,1.5-3.3,3.3v6.8c0,1.8,1.5,3.3,3.3,3.3h5.2c1.8,0,3.3-1.5,3.3-3.3v-6.8   C43,65.7,41.5,64.3,39.7,64.3z M39.3,73.9H35v-6h4.3V73.9z"/><path d="M63.7,64.3c-1,0-1.8,0.8-1.8,1.8v9.6c0,1,0.8,1.8,1.8,1.8c1,0,1.8-0.8,1.8-1.8v-9.6C65.5,65.1,64.7,64.3,63.7,64.3z"/><path d="M25.6,64.3c-1,0-1.8,0.8-1.8,1.8v9.6c0,1,0.8,1.8,1.8,1.8s1.8-0.8,1.8-1.8v-9.6C27.4,65.1,26.6,64.3,25.6,64.3z"/><path d="M18.3,64.3c-1,0-1.8,0.8-1.8,1.8v9.6c0,1,0.8,1.8,1.8,1.8s1.8-0.8,1.8-1.8v-9.6C20.2,65.1,19.3,64.3,18.3,64.3z"/><path d="M17,23.4v11.9H7.3c-1,0-1.8,0.8-1.8,1.8v51.3c0,1,0.8,1.8,1.8,1.8h68.3c2.8,0,5.1-0.9,6.6-2.5c2.5-2.6,2.3-6.3,2.3-6.4   V37.1c0-1-0.8-1.8-1.8-1.8H72.1V23.4c0-5.5-4.4-9.9-9.8-10.1C61.9,8.9,59.8,3.4,53.7,1c-0.9-0.4-2,0.1-2.4,1.1   c-0.4,0.9,0.1,2,1.1,2.4c7.4,2.8,6.3,11.8,6.2,12.1c0,0.1,0,0.2,0,0.3v6l0,0l0,0V27c-1.5-0.1-2.6-1.4-2.6-2.9v-4.6   c0-1-0.9-1.8-1.9-1.8s-1.8,0.8-1.8,1.8v9.9c0,0.7-0.6,1.4-1.4,1.4c-0.8,0-1.4-0.7-1.4-1.1c0-1-0.8-1.8-1.8-1.8s-1.8,0.8-1.8,1.8   v1.7c0,0.3-0.5,0.8-1.3,0.8c-0.6,0-1.2-0.6-1.2-0.8v-1.5c0-1-0.8-1.8-1.8-1.8s-1.8,0.8-1.8,1.8c0,0.7-0.6,1.3-1.3,1.3   s-1.3-0.6-1.3-1.3V29c0-1-0.8-1.8-1.8-1.8S33.6,28,33.6,29c0,0.1,0,0.2,0,0.2c0,0.1-0.4,0.3-1.2,0.3c-0.7,0-1.2-0.6-1.3-1.3   l-0.2-3.1V12.5c0-3.9,2.3-7,4.3-8.5c0.8-0.6,1-1.8,0.4-2.6S33.8,0.4,33,1c-2.8,2.1-5.7,6.2-5.7,11.5v0.8l0,0   C21.5,13.3,17,17.8,17,23.4z M62.2,17c3.4,0.1,6.2,2.9,6.2,6.4v11.9h-2v-11c0-2.3-1.9-4.3-4.2-4.4V17z M48.6,33.9   c0.7,0.3,1.5,0.5,2.3,0.5c2.6,0,4.7-2,5-4.5c0.9,0.5,1.9,0.7,3,0.7h1.6c1,0,1.8-0.7,1.9-1.7c0-0.1,0-0.3,0-0.4v-4.9   c0.3,0.1,0.5,0.4,0.5,0.7v11H46.8C47.5,35,48.1,34.5,48.6,33.9z M80.8,39c-0.2,5.6-3,11.2-7.9,12.2V50c0-1-0.8-1.8-1.8-1.8   S69.3,49,69.3,50v9.6c0,1,0.8,1.8,1.8,1.8s1.8-0.8,1.8-1.8v-4.7c3.3-0.4,6-2.2,7.9-4.8v31.5c0,0,0.1,2.3-1.3,3.7   c-0.9,0.9-2.2,1.4-4,1.4H9.2V50.3c1.8,2.4,4.2,4,7.3,4.5v3.3c0,1.8,1.5,3.3,3.3,3.3H25c1.8,0,3.3-1.5,3.3-3.3v-6.8   c0-1.8-1.5-3.3-3.3-3.3h-5.2c-1.7,0-3.1,1.3-3.2,3c-4.9-1-7.2-6.6-7.4-12H80.8z M20.2,57.7v-6h4.3v6H20.2z M27.1,25.2l0.2,3.1   c0,2.7,2.2,4.9,4.9,4.9c0.9,0,1.7-0.1,2.3-0.4c0.9,1.2,2.3,1.9,3.9,1.9c0.9,0,1.7-0.2,2.4-0.6c0.4,0.5,1,0.9,1.6,1.2h-16v-11   c0-0.4,0.3-0.7,0.7-0.7l0,0L27.1,25.2z M27.1,17v3l0,0c-2.4,0-4.4,2-4.4,4.4v11h-2v-12C20.7,19.9,23.5,17,27.1,17L27.1,17z"/></g><text x="0" y="106" fill="#000000" font-size="5px" font-weight="bold" font-family="'Helvetica Neue', Helvetica, Arial-Unicode, Arial, Sans-serif">Created by BomSymbols</text><text x="0" y="111" fill="#000000" font-size="5px" font-weight="bold" font-family="'Helvetica Neue', Helvetica, Arial-Unicode, Arial, Sans-serif">from the Noun Project</text></svg>